<?xml version="1.0" encoding="iso-8859-1"?>
<!-- Generator: Adobe Illustrator 19.0.0, SVG Export Plug-In . SVG Version: 6.00 Build 0)  -->
<svg version="1.1" id="Layer_1" xmlns="http://www.w3.org/2000/svg" xmlns:xlink="http://www.w3.org/1999/xlink" x="0px" y="0px"
	 viewBox="0 0 408.759 408.759" style="enable-background:new 0 0 408.759 408.759;" xml:space="preserve">
<g>
	<path style="fill:#FFBE00;" d="M204.383,408.759c-58.121,0-113.674-24.866-152.417-68.227
		C18.46,303.057,0.005,254.703,0.005,204.381C0.005,91.685,91.688,0,204.383,0c50.319,0,98.674,18.455,136.164,51.964
		c43.346,38.762,68.207,94.314,68.207,152.417C408.755,317.074,317.074,408.759,204.383,408.759"/>
	<path style="fill:#F4502A;" d="M377.755,204.379c0,10-0.849,19.8-2.48,29.33c-1.309,7.71-3.13,15.249-5.429,22.569
		c-19.811,63.241-74.87,110.892-142.16,119.922c-1.959,0.259-3.93,0.489-5.92,0.689c-5.719,0.58-11.51,0.87-17.38,0.87
		c-51.39,0-97.559-22.359-129.299-57.879c-0.26-0.29-0.521-0.591-0.79-0.881c-26.95-30.56-43.29-70.68-43.29-114.62
		C31.007,108.63,108.628,31,204.386,31c43.951,0,84.071,16.35,114.631,43.291c0.29,0.27,0.589,0.53,0.879,0.788
		C355.406,106.838,377.755,152.989,377.755,204.379"/>
	<path style="fill:#C29100;" d="M74.342,319.049c3.555,4.028,7.3,7.894,11.211,11.575c-3.642-3.43-7.133-7.014-10.467-10.745
		C74.841,319.606,74.596,319.323,74.342,319.049 M53.114,289.163l0.002,0.004C53.115,289.165,53.115,289.165,53.114,289.163
		 M52.689,288.403l0.001,0.001L52.689,288.403 M52.402,287.883c0.007,0.013,0.012,0.021,0.019,0.034
		C52.415,287.906,52.408,287.894,52.402,287.883 M51.97,287.094c0.01,0.019,0.021,0.038,0.031,0.056
		C51.991,287.132,51.979,287.111,51.97,287.094 M51.705,286.605c0.009,0.016,0.016,0.029,0.024,0.045
		C51.722,286.636,51.712,286.618,51.705,286.605 M51.268,285.789c0.017,0.032,0.034,0.064,0.051,0.096
		C51.302,285.854,51.284,285.82,51.268,285.789 M51.01,285.304c0.02,0.038,0.041,0.078,0.061,0.116
		C51.052,285.383,51.03,285.342,51.01,285.304 M50.841,284.984c0.018,0.035,0.036,0.068,0.054,0.103
		C50.877,285.052,50.86,285.02,50.841,284.984 M50.579,284.484c0.024,0.046,0.047,0.089,0.07,0.135
		C50.625,284.572,50.604,284.531,50.579,284.484 M50.336,284.016c0.024,0.046,0.046,0.088,0.069,0.134
		C50.382,284.105,50.359,284.061,50.336,284.016 M50.137,283.631c0.031,0.059,0.058,0.112,0.088,0.171
		C50.197,283.747,50.166,283.687,50.137,283.631 M49.913,283.195c0.025,0.049,0.048,0.094,0.073,0.143
		C49.962,283.291,49.937,283.241,49.913,283.195 M49.674,282.725c0.022,0.043,0.046,0.091,0.068,0.134
		C49.719,282.814,49.697,282.77,49.674,282.725 M49.486,282.353c0.027,0.054,0.055,0.109,0.082,0.163
		C49.541,282.462,49.513,282.406,49.486,282.353 M49.252,281.888c0.026,0.052,0.055,0.109,0.08,0.16
		C49.306,281.995,49.279,281.942,49.252,281.888 M49.019,281.421c0.031,0.063,0.061,0.122,0.092,0.185
		C49.081,281.544,49.049,281.481,49.019,281.421 M48.816,281.01c0.035,0.071,0.068,0.139,0.104,0.209
		C48.885,281.15,48.85,281.08,48.816,281.01 M48.604,280.58c0.031,0.063,0.059,0.12,0.089,0.182
		C48.664,280.701,48.634,280.641,48.604,280.58 M48.375,280.11c0.04,0.082,0.083,0.17,0.123,0.251
		C48.456,280.278,48.415,280.193,48.375,280.11 M48.176,279.7c0.037,0.077,0.075,0.155,0.112,0.232
		C48.251,279.854,48.213,279.777,48.176,279.7 M47.967,279.266c0.032,0.066,0.064,0.133,0.095,0.198
		C48.031,279.398,47.998,279.331,47.967,279.266 M47.741,278.793c0.048,0.102,0.097,0.204,0.146,0.305
		C47.838,278.996,47.79,278.895,47.741,278.793 M47.537,278.362c0.042,0.088,0.083,0.176,0.125,0.264
		C47.62,278.538,47.579,278.451,47.537,278.362 M47.335,277.934c0.039,0.083,0.077,0.165,0.116,0.248
		C47.412,278.097,47.375,278.018,47.335,277.934 M47.119,277.472c0.05,0.107,0.101,0.216,0.151,0.323
		C47.22,277.689,47.169,277.58,47.119,277.472 M46.923,277.05c0.042,0.091,0.083,0.18,0.126,0.271
		C47.007,277.229,46.966,277.141,46.923,277.05 M46.724,276.618c0.039,0.086,0.078,0.17,0.118,0.256
		C46.803,276.789,46.763,276.703,46.724,276.618 M46.51,276.15c0.049,0.108,0.098,0.214,0.147,0.322
		C46.608,276.365,46.56,276.258,46.51,276.15 M46.317,275.724c0.043,0.094,0.083,0.184,0.126,0.278
		C46.401,275.91,46.359,275.815,46.317,275.724 M46.122,275.29c0.042,0.094,0.082,0.184,0.125,0.278
		C46.205,275.476,46.163,275.382,46.122,275.29 M45.91,274.816c0.049,0.111,0.101,0.227,0.151,0.338
		C46.01,275.041,45.96,274.929,45.91,274.816 M45.719,274.385c0.044,0.1,0.091,0.205,0.135,0.305
		C45.809,274.589,45.764,274.487,45.719,274.385 M45.523,273.94c0.048,0.109,0.097,0.222,0.145,0.331
		C45.62,274.162,45.571,274.049,45.523,273.94 M45.32,273.476c0.053,0.123,0.105,0.24,0.158,0.363
		C45.426,273.719,45.372,273.596,45.32,273.476 M45.132,273.041c0.048,0.112,0.094,0.217,0.142,0.329
		C45.227,273.261,45.179,273.15,45.132,273.041 M44.944,272.605c0.053,0.123,0.106,0.247,0.159,0.371
		C45.05,272.851,44.998,272.731,44.944,272.605 M44.743,272.134c0.052,0.123,0.105,0.245,0.157,0.369
		C44.848,272.38,44.795,272.257,44.743,272.134 M44.561,271.703c0.049,0.115,0.095,0.226,0.144,0.341
		C44.657,271.93,44.609,271.817,44.561,271.703 M44.375,271.26c0.053,0.127,0.106,0.253,0.159,0.38
		C44.48,271.512,44.428,271.388,44.375,271.26 M44.177,270.785c0.053,0.127,0.106,0.254,0.159,0.381
		C44.282,271.038,44.23,270.913,44.177,270.785 M43.996,270.347c0.05,0.121,0.102,0.247,0.152,0.369
		C44.097,270.592,44.047,270.471,43.996,270.347 M43.816,269.908c0.053,0.13,0.108,0.263,0.161,0.393
		C43.923,270.17,43.869,270.039,43.816,269.908 M43.622,269.432c0.053,0.13,0.107,0.264,0.16,0.394
		C43.728,269.694,43.675,269.563,43.622,269.432 M43.442,268.987c0.054,0.133,0.106,0.262,0.159,0.395
		C43.549,269.251,43.495,269.118,43.442,268.987 M43.264,268.542c0.055,0.139,0.11,0.276,0.166,0.415
		C43.375,268.818,43.319,268.68,43.264,268.542 M43.077,268.071c0.055,0.139,0.11,0.278,0.166,0.417
		C43.188,268.35,43.132,268.21,43.077,268.071 M42.903,267.628c0.055,0.139,0.109,0.278,0.164,0.418
		C43.012,267.907,42.957,267.767,42.903,267.628 M42.728,267.18c0.055,0.142,0.11,0.282,0.166,0.425
		C42.839,267.464,42.783,267.322,42.728,267.18 M42.372,266.256c0.112,0.294,0.226,0.588,0.34,0.882
		C42.597,266.843,42.485,266.551,42.372,266.256 M42.203,265.813c0.055,0.146,0.111,0.293,0.167,0.438
		C42.314,266.105,42.259,265.959,42.203,265.813 M41.856,264.889c0.111,0.298,0.222,0.594,0.335,0.892
		C42.078,265.483,41.968,265.189,41.856,264.889 M41.69,264.442c0.055,0.149,0.11,0.296,0.165,0.446
		C41.8,264.738,41.746,264.592,41.69,264.442 M41.355,263.526c0.109,0.299,0.217,0.595,0.327,0.894
		C41.573,264.123,41.463,263.824,41.355,263.526 M41.188,263.064c0.054,0.15,0.108,0.299,0.162,0.449
		C41.297,263.366,41.242,263.212,41.188,263.064 M213.3,31.225c0.032,0.002,0.064,0.003,0.096,0.005
		C213.363,31.228,213.332,31.226,213.3,31.225 M212.713,31.196c0.034,0.002,0.074,0.004,0.108,0.005
		C212.786,31.199,212.748,31.198,212.713,31.196 M212.313,31.177c0.048,0.002,0.091,0.004,0.139,0.006
		C212.407,31.182,212.358,31.179,212.313,31.177 M211.739,31.153c0.05,0.002,0.096,0.004,0.147,0.006
		C211.834,31.156,211.79,31.155,211.739,31.153 M211.161,31.129c0.072,0.003,0.148,0.006,0.22,0.009
		C211.307,31.135,211.235,31.132,211.161,31.129 M210.673,31.111c0.088,0.003,0.179,0.006,0.267,0.01
		C210.854,31.118,210.76,31.115,210.673,31.111 M210.162,31.094c0.077,0.003,0.161,0.005,0.238,0.008
		C210.323,31.099,210.239,31.096,210.162,31.094 M209.608,31.076c0.12,0.004,0.236,0.007,0.356,0.011
		C209.845,31.083,209.728,31.08,209.608,31.076 M209.101,31.062c0.104,0.003,0.206,0.006,0.31,0.009
		C209.308,31.068,209.204,31.065,209.101,31.062 M208.596,31.05c0.099,0.002,0.197,0.005,0.296,0.007
		C208.792,31.054,208.696,31.052,208.596,31.05 M208.053,31.037c0.131,0.003,0.259,0.006,0.39,0.009
		C208.31,31.043,208.185,31.04,208.053,31.037 M207.52,31.027c0.126,0.002,0.251,0.005,0.377,0.007
		C207.771,31.032,207.646,31.029,207.52,31.027 M207.037,31.019c0.118,0.002,0.237,0.004,0.354,0.006
		C207.272,31.023,207.156,31.021,207.037,31.019 M206.488,31.012c0.139,0.002,0.281,0.004,0.42,0.006
		C206.769,31.015,206.627,31.013,206.488,31.012 M205.937,31.006c0.147,0.001,0.296,0.003,0.443,0.004
		C206.231,31.009,206.086,31.007,205.937,31.006 M205.47,31.003c0.142,0.001,0.287,0.002,0.429,0.003
		C205.756,31.005,205.612,31.004,205.47,31.003 M204.936,31c0.147,0,0.298,0.001,0.445,0.002
		C205.233,31.001,205.085,31.001,204.936,31 M204.385,30.999c0.153,0,0.309,0,0.461,0.001c-0.155,0-0.308-0.001-0.463-0.001
		 M204.383,30.999c-95.76,0-173.38,77.621-173.38,173.37c0,20.599,3.59,40.357,10.181,58.685
		c-6.589-18.325-10.179-38.082-10.179-58.676C31.005,108.629,108.626,30.999,204.383,30.999
		C204.383,30.999,204.383,30.999,204.383,30.999"/>
	<path style="fill:#BA3D20;" d="M204.385,30.999c-95.758,0-173.379,77.63-173.379,173.379c0,20.594,3.59,40.351,10.179,58.676
		c0.001,0.003,0.002,0.007,0.003,0.01c0.053,0.148,0.109,0.302,0.162,0.449c0.001,0.003,0.003,0.009,0.004,0.012
		c0.108,0.298,0.218,0.597,0.327,0.894c0.002,0.006,0.006,0.016,0.008,0.022c0.055,0.15,0.11,0.296,0.165,0.446l0.001,0.002
		c0.111,0.299,0.222,0.594,0.335,0.892c0.004,0.011,0.008,0.02,0.012,0.031c0.056,0.147,0.111,0.292,0.167,0.438l0.002,0.005
		c0.113,0.295,0.225,0.587,0.34,0.882c0.006,0.014,0.011,0.029,0.017,0.043c0.055,0.141,0.11,0.283,0.166,0.425
		c0.003,0.009,0.006,0.014,0.009,0.023c0.054,0.139,0.109,0.279,0.164,0.418c0.003,0.008,0.007,0.017,0.01,0.026
		c0.055,0.139,0.11,0.279,0.166,0.417c0.007,0.017,0.014,0.036,0.021,0.053c0.055,0.138,0.11,0.277,0.166,0.415
		c0.003,0.009,0.009,0.022,0.012,0.03c0.053,0.131,0.106,0.264,0.159,0.395c0.007,0.017,0.013,0.033,0.02,0.05
		c0.053,0.131,0.107,0.263,0.16,0.394c0.012,0.028,0.022,0.054,0.034,0.083c0.053,0.131,0.107,0.262,0.161,0.393
		c0.007,0.017,0.012,0.03,0.019,0.047c0.051,0.124,0.101,0.245,0.152,0.369c0.011,0.025,0.018,0.043,0.029,0.069
		c0.053,0.128,0.105,0.253,0.159,0.381c0.013,0.031,0.026,0.063,0.039,0.094c0.054,0.128,0.106,0.252,0.159,0.38
		c0.008,0.02,0.018,0.043,0.026,0.063c0.048,0.114,0.096,0.227,0.144,0.341c0.012,0.028,0.026,0.062,0.038,0.09
		c0.052,0.123,0.105,0.246,0.157,0.369c0.016,0.036,0.028,0.066,0.044,0.103c0.054,0.125,0.105,0.245,0.159,0.371
		c0.008,0.02,0.02,0.046,0.028,0.065c0.047,0.109,0.095,0.22,0.142,0.329c0.015,0.033,0.031,0.072,0.046,0.106
		c0.052,0.12,0.106,0.243,0.158,0.363c0.015,0.033,0.03,0.068,0.045,0.102c0.048,0.109,0.097,0.222,0.145,0.331
		c0.017,0.039,0.033,0.076,0.051,0.115c0.045,0.101,0.09,0.204,0.135,0.305c0.02,0.044,0.036,0.081,0.056,0.125
		c0.05,0.113,0.1,0.225,0.151,0.338c0.02,0.044,0.041,0.092,0.061,0.136c0.041,0.092,0.083,0.186,0.125,0.278
		c0.023,0.05,0.048,0.106,0.07,0.156c0.042,0.092,0.084,0.187,0.126,0.278c0.023,0.05,0.045,0.098,0.067,0.148
		c0.049,0.108,0.098,0.215,0.147,0.322c0.022,0.047,0.045,0.099,0.067,0.146c0.039,0.085,0.079,0.171,0.118,0.256
		c0.027,0.058,0.054,0.118,0.081,0.176c0.042,0.091,0.083,0.18,0.126,0.271c0.023,0.05,0.047,0.102,0.07,0.152
		c0.05,0.107,0.101,0.217,0.151,0.323c0.022,0.047,0.043,0.091,0.065,0.138c0.04,0.084,0.077,0.163,0.116,0.248
		c0.029,0.06,0.057,0.12,0.085,0.181c0.042,0.089,0.083,0.176,0.125,0.264c0.026,0.055,0.053,0.112,0.079,0.167
		c0.049,0.102,0.097,0.203,0.146,0.305c0.028,0.058,0.053,0.11,0.08,0.168c0.032,0.066,0.064,0.133,0.095,0.198
		c0.038,0.079,0.075,0.156,0.114,0.236c0.037,0.077,0.075,0.155,0.112,0.232c0.029,0.06,0.057,0.118,0.087,0.178
		c0.041,0.083,0.082,0.168,0.123,0.251c0.036,0.074,0.071,0.145,0.107,0.219c0.03,0.061,0.06,0.121,0.089,0.182
		c0.04,0.082,0.082,0.167,0.122,0.248c0.034,0.07,0.069,0.14,0.104,0.209c0.032,0.065,0.067,0.135,0.099,0.201
		c0.03,0.061,0.062,0.124,0.092,0.185c0.047,0.095,0.094,0.188,0.141,0.283c0.027,0.054,0.053,0.107,0.08,0.16
		c0.052,0.103,0.101,0.201,0.153,0.304c0.027,0.054,0.055,0.109,0.082,0.163c0.036,0.071,0.07,0.139,0.106,0.209
		c0.023,0.045,0.045,0.089,0.068,0.134c0.056,0.111,0.114,0.225,0.171,0.335c0.024,0.047,0.049,0.096,0.073,0.143
		c0.05,0.097,0.101,0.196,0.151,0.293c0.029,0.056,0.06,0.116,0.088,0.171c0.036,0.07,0.075,0.144,0.111,0.214
		c0.023,0.044,0.046,0.089,0.069,0.134c0.057,0.11,0.116,0.224,0.174,0.334c0.024,0.047,0.046,0.088,0.07,0.135
		c0.063,0.121,0.128,0.245,0.192,0.365c0.019,0.035,0.036,0.068,0.054,0.103c0.038,0.072,0.076,0.145,0.115,0.217
		c0.02,0.038,0.041,0.078,0.061,0.116c0.065,0.123,0.131,0.246,0.196,0.369c0.017,0.031,0.035,0.065,0.051,0.096
		c0.128,0.24,0.257,0.48,0.386,0.719c0.007,0.013,0.017,0.031,0.024,0.045c0.079,0.147,0.161,0.298,0.241,0.444
		c0.01,0.018,0.021,0.039,0.031,0.056c0.133,0.245,0.267,0.489,0.401,0.733c0.006,0.011,0.013,0.023,0.019,0.034
		c0.089,0.162,0.179,0.324,0.268,0.486l0.001,0.001c0.141,0.254,0.282,0.506,0.424,0.759c0.001,0.002,0.001,0.002,0.002,0.004
		c6.022,10.719,13.146,20.728,21.227,29.882c0.253,0.274,0.499,0.557,0.744,0.831c3.334,3.731,6.825,7.315,10.467,10.745
		c2.248,2.116,4.551,4.171,6.91,6.167c-25.53-30.202-40.919-69.241-40.919-111.882c0-95.749,77.619-173.37,173.379-173.37
		c42.631,0,81.68,15.39,111.87,40.921c-29.979-35.449-73.953-58.698-123.398-61.231c-0.032-0.002-0.064-0.003-0.096-0.005
		c-0.16-0.008-0.318-0.016-0.478-0.023c-0.034-0.002-0.074-0.004-0.108-0.005c-0.09-0.004-0.172-0.008-0.262-0.012
		c-0.048-0.002-0.091-0.004-0.139-0.006c-0.141-0.006-0.286-0.013-0.428-0.019c-0.05-0.002-0.096-0.004-0.147-0.006
		c-0.119-0.005-0.239-0.01-0.357-0.015c-0.072-0.003-0.148-0.006-0.22-0.009c-0.074-0.003-0.147-0.006-0.221-0.008
		c-0.088-0.003-0.179-0.007-0.267-0.01c-0.093-0.003-0.18-0.006-0.273-0.01c-0.077-0.003-0.161-0.005-0.238-0.008
		c-0.068-0.002-0.13-0.004-0.198-0.006c-0.12-0.004-0.236-0.007-0.356-0.011c-0.064-0.002-0.133-0.004-0.197-0.006
		c-0.104-0.003-0.206-0.006-0.31-0.009c-0.071-0.002-0.138-0.004-0.209-0.005c-0.099-0.003-0.197-0.005-0.296-0.007
		c-0.048-0.001-0.105-0.003-0.153-0.004c-0.131-0.003-0.259-0.006-0.39-0.009c-0.052-0.001-0.104-0.002-0.156-0.003
		c-0.125-0.002-0.251-0.005-0.377-0.007c-0.042-0.001-0.087-0.001-0.129-0.002c-0.118-0.002-0.237-0.004-0.354-0.006
		c-0.042-0.001-0.087-0.001-0.129-0.002c-0.139-0.002-0.281-0.004-0.42-0.006c-0.036,0-0.073-0.001-0.109-0.001
		c-0.147-0.001-0.295-0.003-0.443-0.004c-0.013,0-0.025,0-0.038,0c-0.142-0.001-0.287-0.002-0.429-0.003c-0.029,0-0.059,0-0.088,0
		c-0.147-0.001-0.298-0.001-0.445-0.002c-0.029,0-0.061,0-0.09,0C204.694,31,204.538,30.999,204.385,30.999
		c-0.002,0-0.002,0-0.002,0"/>
	<path style="fill:#BA3D20;" d="M282.826,141.269l12.769,67.38l-5.279,12.395c-6.528,41.27-40.39,65.43-40.919,65.805l-0.001,0.001
		l0,0l23.199-24.199l17.721-41.606c2.894-18.296,0.416-39.956-12.72-64.394c0,0-28.767-41.095-72.128-41.095
		c-9.034,0-18.7,1.783-28.873,6.094c-59,25.001-44.998,35.001-44.998,35.001l-10.382,2.028l128.176,128.176l-37.765,8.766
		l-89.281-89.29l7.521,72.05l97.819,97.821c67.291-9.03,122.35-56.68,142.16-119.922c2.299-7.32,4.12-14.86,5.429-22.569
		L282.826,141.269z"/>
	<path style="fill:#8E2E18;" d="M249.397,286.849l-0.008,0.002l0.002,0.002C249.391,286.853,249.393,286.852,249.397,286.849
		 M290.316,221.043l-17.721,41.606l-23.198,24.199C249.927,286.473,283.789,262.313,290.316,221.043"/>
	<path style="fill:#FFFFFF;" d="M203.213,103.463c-22.846,0-44.55,7.403-62.387,21.064l-16.767-18.675l-2.844,52.825l52.825,2.844
		l-18.453-20.552c13.748-10.062,30.267-15.505,47.626-15.505c44.591,0,80.868,36.277,80.868,80.868S247.804,287.2,203.213,287.2
		s-80.868-36.277-80.868-80.868h-22c0,56.722,46.146,102.868,102.868,102.868s102.868-46.146,102.868-102.868
		S259.935,103.463,203.213,103.463z"/>
</g>
<g>
</g>
<g>
</g>
<g>
</g>
<g>
</g>
<g>
</g>
<g>
</g>
<g>
</g>
<g>
</g>
<g>
</g>
<g>
</g>
<g>
</g>
<g>
</g>
<g>
</g>
<g>
</g>
<g>
</g>
</svg>
